<svg width="17" height="19" viewBox="0 0 17 19" fill="none" xmlns="http://www.w3.org/2000/svg">
<g clip-path="url(#clip0)">
<path d="M5.3683 10.4464H3.91741C3.67801 10.4464 3.48214 10.2506 3.48214 10.0112V8.56027C3.48214 8.32087 3.67801 8.125 3.91741 8.125H5.3683C5.6077 8.125 5.80357 8.32087 5.80357 8.56027V10.0112C5.80357 10.2506 5.6077 10.4464 5.3683 10.4464ZM9.28571 10.0112V8.56027C9.28571 8.32087 9.08984 8.125 8.85045 8.125H7.39955C7.16016 8.125 6.96429 8.32087 6.96429 8.56027V10.0112C6.96429 10.2506 7.16016 10.4464 7.39955 10.4464H8.85045C9.08984 10.4464 9.28571 10.2506 9.28571 10.0112ZM12.7679 10.0112V8.56027C12.7679 8.32087 12.572 8.125 12.3326 8.125H10.8817C10.6423 8.125 10.4464 8.32087 10.4464 8.56027V10.0112C10.4464 10.2506 10.6423 10.4464 10.8817 10.4464H12.3326C12.572 10.4464 12.7679 10.2506 12.7679 10.0112ZM9.28571 13.4933V12.0424C9.28571 11.803 9.08984 11.6071 8.85045 11.6071H7.39955C7.16016 11.6071 6.96429 11.803 6.96429 12.0424V13.4933C6.96429 13.7327 7.16016 13.9286 7.39955 13.9286H8.85045C9.08984 13.9286 9.28571 13.7327 9.28571 13.4933ZM5.80357 13.4933V12.0424C5.80357 11.803 5.6077 11.6071 5.3683 11.6071H3.91741C3.67801 11.6071 3.48214 11.803 3.48214 12.0424V13.4933C3.48214 13.7327 3.67801 13.9286 3.91741 13.9286H5.3683C5.6077 13.9286 5.80357 13.7327 5.80357 13.4933ZM12.7679 13.4933V12.0424C12.7679 11.803 12.572 11.6071 12.3326 11.6071H10.8817C10.6423 11.6071 10.4464 11.803 10.4464 12.0424V13.4933C10.4464 13.7327 10.6423 13.9286 10.8817 13.9286H12.3326C12.572 13.9286 12.7679 13.7327 12.7679 13.4933ZM16.25 4.0625V16.8304C16.25 17.7916 15.4701 18.5714 14.5089 18.5714H1.74107C0.779855 18.5714 0 17.7916 0 16.8304V4.0625C0 3.10128 0.779855 2.32143 1.74107 2.32143H3.48214V0.435268C3.48214 0.195871 3.67801 0 3.91741 0H5.3683C5.6077 0 5.80357 0.195871 5.80357 0.435268V2.32143H10.4464V0.435268C10.4464 0.195871 10.6423 0 10.8817 0H12.3326C12.572 0 12.7679 0.195871 12.7679 0.435268V2.32143H14.5089C15.4701 2.32143 16.25 3.10128 16.25 4.0625ZM14.5089 16.6127V5.80357H1.74107V16.6127C1.74107 16.7324 1.83901 16.8304 1.95871 16.8304H14.2913C14.411 16.8304 14.5089 16.7324 14.5089 16.6127Z" fill="#141349"/>
</g>
<defs>
<clipPath id="clip0">
<rect width="16.25" height="18.5714" fill="white"/>
</clipPath>
</defs>
</svg>
