<svg width="18" height="18" viewBox="0 0 18 18" fill="none" xmlns="http://www.w3.org/2000/svg">
<path d="M4.90815 1.24805C4.86895 1.20872 4.82238 1.17751 4.7711 1.15622C4.71982 1.13492 4.66484 1.12396 4.60932 1.12396C4.55379 1.12396 4.49881 1.13492 4.44753 1.15622C4.39625 1.17751 4.34968 1.20872 4.31049 1.24805L2.07174 3.47379L1.27369 2.69613C1.2345 2.6568 1.18793 2.62559 1.13665 2.6043C1.08537 2.58301 1.03039 2.57205 0.974864 2.57205C0.919339 2.57205 0.864361 2.58301 0.813081 2.6043C0.761801 2.62559 0.715229 2.6568 0.676036 2.69613L0.124083 3.24879C0.0847527 3.28798 0.0535465 3.33455 0.0322536 3.38583C0.0109607 3.43711 0 3.49209 0 3.54762C0 3.60314 0.0109607 3.65812 0.0322536 3.7094C0.0535465 3.76068 0.0847527 3.80725 0.124083 3.84644L1.79717 5.51285C1.88068 5.59223 1.9915 5.6365 2.10672 5.6365C2.22194 5.6365 2.33276 5.59223 2.41627 5.51285L2.96436 4.96371L5.50264 2.42578C5.58172 2.34663 5.62641 2.23949 5.627 2.1276C5.6276 2.01571 5.58405 1.90811 5.5058 1.82812L4.90815 1.24805ZM4.90815 6.84457C4.86895 6.80524 4.82238 6.77403 4.7711 6.75274C4.71982 6.73145 4.66484 6.72049 4.60932 6.72049C4.55379 6.72049 4.49881 6.73145 4.44753 6.75274C4.39625 6.77403 4.34968 6.80524 4.31049 6.84457L2.07174 9.08472L1.27369 8.30777C1.2345 8.26844 1.18793 8.23724 1.13665 8.21594C1.08537 8.19465 1.03039 8.18369 0.974864 8.18369C0.919339 8.18369 0.864361 8.19465 0.813081 8.21594C0.761801 8.23724 0.715229 8.26844 0.676036 8.30777L0.124083 8.85937C0.0847527 8.89857 0.0535465 8.94514 0.0322536 8.99642C0.0109607 9.0477 0 9.10268 0 9.1582C0 9.21373 0.0109607 9.26871 0.0322536 9.31998C0.0535465 9.37126 0.0847527 9.41784 0.124083 9.45703L1.79295 11.127C1.8764 11.2063 1.98716 11.2506 2.10232 11.2506C2.21749 11.2506 2.32825 11.2063 2.4117 11.127L2.96365 10.5753L5.50193 8.03637C5.58072 7.95777 5.62526 7.85123 5.62585 7.73995C5.62644 7.62866 5.58304 7.52166 5.5051 7.44222L4.90815 6.84457ZM2.24998 12.9375C1.31869 12.9375 0.541739 13.6934 0.541739 14.625C0.541739 15.5566 1.3194 16.3125 2.24998 16.3125C2.69753 16.3125 3.12676 16.1347 3.44322 15.8182C3.75969 15.5018 3.93748 15.0726 3.93748 14.625C3.93748 14.1774 3.75969 13.7482 3.44322 13.4318C3.12676 13.1153 2.69753 12.9375 2.24998 12.9375ZM17.4375 13.5H7.31248C7.1633 13.5 7.02022 13.5593 6.91473 13.6648C6.80924 13.7702 6.74998 13.9133 6.74998 14.0625V15.1875C6.74998 15.3367 6.80924 15.4798 6.91473 15.5852C7.02022 15.6907 7.1633 15.75 7.31248 15.75H17.4375C17.5867 15.75 17.7297 15.6907 17.8352 15.5852C17.9407 15.4798 18 15.3367 18 15.1875V14.0625C18 13.9133 17.9407 13.7702 17.8352 13.6648C17.7297 13.5593 17.5867 13.5 17.4375 13.5ZM17.4375 2.25H7.31248C7.1633 2.25 7.02022 2.30926 6.91473 2.41475C6.80924 2.52024 6.74998 2.66331 6.74998 2.8125V3.9375C6.74998 4.08668 6.80924 4.22976 6.91473 4.33525C7.02022 4.44073 7.1633 4.5 7.31248 4.5H17.4375C17.5867 4.5 17.7297 4.44073 17.8352 4.33525C17.9407 4.22976 18 4.08668 18 3.9375V2.8125C18 2.66331 17.9407 2.52024 17.8352 2.41475C17.7297 2.30926 17.5867 2.25 17.4375 2.25ZM17.4375 7.875H7.31248C7.1633 7.875 7.02022 7.93426 6.91473 8.03975C6.80924 8.14524 6.74998 8.28831 6.74998 8.4375V9.5625C6.74998 9.71168 6.80924 9.85476 6.91473 9.96025C7.02022 10.0657 7.1633 10.125 7.31248 10.125H17.4375C17.5867 10.125 17.7297 10.0657 17.8352 9.96025C17.9407 9.85476 18 9.71168 18 9.5625V8.4375C18 8.28831 17.9407 8.14524 17.8352 8.03975C17.7297 7.93426 17.5867 7.875 17.4375 7.875Z" fill="#141349"/>
</svg>
